<svg xmlns="http://www.w3.org/2000/svg" xmlns:xlink="http://www.w3.org/1999/xlink" version="1.1" x="0px" y="0px" viewBox="0 0 100 125" style="enable-background:new 0 0 100 100;" xml:space="preserve"><path d="M42.8,90.4c-0.3,0-0.6-0.2-0.8-0.5c-1.6-2.4-2.8-5-3.8-7.6c-2.1-5.6-2.2-12-0.5-19.2c0.4-1.6,1-3.5,1.8-5.9  c0.2-0.5,0.7-0.8,1.3-0.6c0.5,0.2,0.8,0.7,0.6,1.3c-0.8,2.4-1.3,4.2-1.7,5.8c-1.6,6.8-1.5,12.9,0.4,18.1c0.9,2.4,2.2,4.9,3.6,7.2  c0.3,0.5,0.2,1.1-0.3,1.4C43.2,90.4,43,90.4,42.8,90.4z M44.1,14.8c0.5-0.2,0.8-0.7,0.7-1.3c-0.2-0.7-0.2-1.3,0-1.9  c0.2-0.5,1.1-2.2,4.3-2.2c0.6,0,1-0.4,1-1s-0.4-1-1-1c-4.4,0-5.8,2.7-6.2,3.5c-0.4,1-0.4,2.1-0.1,3.3c0.1,0.4,0.5,0.7,1,0.7  C43.9,14.9,44,14.8,44.1,14.8z M63.6,83.4c-2.4,6.4-5.9,10.5-6.1,10.7l-0.2,0.2L57,94.4c-0.1,0-2.9,0.8-8.2,0.8  c-5.3,0-8-0.7-8.1-0.8l-0.3-0.1l-0.2-0.2c-0.2-0.2-3.7-4.3-6.1-10.7c-2.1-5.6-2.2-12-0.5-19.2c0.9-3.7,2.7-8.6,4.4-13.4  c1.5-4.3,3-8.3,3.8-11.4c2.8-10.5,1.8-18.6-0.4-21.6c-0.8-1.1-3-4.3-1.6-7.9c0.5-1.2,2.5-4.9,8.7-5.1c0,0,0,0,0.1,0c0,0,0.1,0,0.1,0  c0,0,0.1,0,0.1,0c0,0,0,0,0.1,0c6.2,0.1,8.2,3.9,8.7,5.1c1.5,3.7-0.8,6.9-1.6,7.9c-2.1,3-3.2,11.1-0.4,21.6  c0.8,3.1,2.3,7.1,3.8,11.4c1.7,4.8,3.5,9.7,4.4,13.4C65.8,71.4,65.6,77.9,63.6,83.4z M42.7,16.1c0.1,0,0.2-0.1,0.3-0.1h12  c1-1.5,1.8-3.4,0.9-5.4c-0.4-0.9-1.9-3.8-7.1-3.8c-5.2,0.1-6.7,2.9-7.1,3.8C40.9,12.6,41.8,14.5,42.7,16.1z M39.9,51.5  c-0.1,0.2-0.1,0.4-0.2,0.5H58c-0.1-0.2-0.1-0.3-0.2-0.5c-1.6-4.3-3-8.4-3.9-11.6c-2.7-10-2-17.8-0.1-21.9h-9.9  c1.9,4.1,2.5,12-0.1,21.9C42.9,43.1,41.5,47.2,39.9,51.5z M62.1,64.6c-0.7-3-2.1-6.9-3.5-10.9C58.4,53.9,58.2,54,58,54H39  c0,0,0,0,0,0c-1.4,3.9-2.7,7.7-3.4,10.6c-1.6,6.8-1.5,12.9,0.4,18.1c1.9,5.2,4.7,8.9,5.5,9.8c0.8,0.2,3.2,0.6,7.3,0.6  c4.1,0,6.6-0.5,7.4-0.6c0.8-0.9,3.6-4.6,5.5-9.8C63.6,77.5,63.8,71.5,62.1,64.6z"/><text x="0" y="115" fill="#000000" font-size="5px" font-weight="bold" font-family="'Helvetica Neue', Helvetica, Arial-Unicode, Arial, Sans-serif">Created by  Laymik</text><text x="0" y="120" fill="#000000" font-size="5px" font-weight="bold" font-family="'Helvetica Neue', Helvetica, Arial-Unicode, Arial, Sans-serif">from the Noun Project</text></svg>