<svg xmlns="http://www.w3.org/2000/svg" xmlns:xlink="http://www.w3.org/1999/xlink" version="1.1" x="0px" y="0px" viewBox="0 0 100 125" style="enable-background:new 0 0 100 100;" xml:space="preserve"><path d="M79.9,67.6c-3.5-4.4-13-16.1-13.1-16.2L66.5,51c-0.1-0.1-6.6-8.3-8.7-18.2c-1.9-9-1.6-25-1.6-25.1l0-0.7l-0.6-0.3  c-0.1,0-1.7-0.8-4-0.8h-1.1c-2.3,0-3.9,0.7-4,0.8L45.8,7l0,0.7c0,0.2,0.3,16.1-1.6,25.1c-2.1,9.9-9.3,18.5-9.4,18.6l0,0l0,0  c-0.1,0.1-9.6,11.8-13.1,16.2c-2.5,3.2-5.2,7.5-3.9,12.7c1.4,5.3,5,7.9,7.8,9.5C30.2,92.4,40,93.9,51,94h0h0.2  c10.3,0,20.1-1.6,25-4.5c2.8-1.6,6.2-4.1,7.6-9.4C85.2,75,82.4,70.8,79.9,67.6z M53.5,8.2c0.3,0.1,0.5,0.1,0.7,0.2  c0,3.3-0.1,16.7,1.7,24.9c1.6,7.6,5.9,14.5,8.2,17.7h-1.5c-1.2-1.4-5.9-7.4-7.8-17.4C53.1,24.8,53.3,12.2,53.5,8.2z M28.9,72  c0.9,2.9,3.4,5.2,7.3,6.7c3.8,1.5,8.7,2.3,14.6,2.3c0,0,0,0,0,0s0,0,0,0c5.9,0,10.8-0.8,14.6-2.3c4.1-1.6,6.6-3.9,7.6-6.8  c0.3-0.9,0.4-1.7,0.4-2.6c3.1,4.6,3.3,9.3,0.3,12.6c-3.5,4.1-14.1,6-23,6c-8.9-0.1-19.1-2-22.9-6.1c-2.9-3.1-2.5-8.6,0.9-13.2  C28.4,69.8,28.5,70.9,28.9,72z M70.9,71.3c-0.8,2.3-2.9,4.2-6.4,5.6c-3.5,1.4-8.2,2.1-13.8,2.2c0,0,0,0-0.1,0  c-5.6,0-10.2-0.8-13.7-2.2c-3.3-1.3-5.4-3.1-6.1-5.4c-1.1-3.4,1-6.9,1.2-7.2c3.5-4.6,7.3-9.8,8.4-11.2h6.3c0.3,1.8,1.9,3.2,3.8,3.2  c1.9,0,3.4-1.4,3.8-3.2h6.7c1.2,1.6,5.6,7.6,9.3,12.5C70.7,66.4,71.7,68.8,70.9,71.3z M48.6,52.3c0-1,0.8-1.8,1.8-1.8  c1,0,1.8,0.8,1.8,1.8c0,1-0.8,1.8-1.8,1.8C49.4,54.2,48.6,53.3,48.6,52.3z M50.5,8h1c-0.1,3.9-0.4,16.7,1.4,25.9  C54.4,42.6,58,48.3,60,51h-6c-0.5-1.5-1.9-2.5-3.6-2.5c-1.6,0-3,1-3.6,2.5H42c2-2.7,5.5-8.4,7.2-17.1C50.9,24.7,50.6,11.9,50.5,8z   M46.1,33.2c1.8-8.2,1.7-21.6,1.7-24.8c0.2-0.1,0.4-0.1,0.7-0.2c0.1,4,0.3,16.6-1.3,25.4c-1.9,10-6.6,16-7.8,17.4h-1.8  C39.9,48,44.5,41.1,46.1,33.2z M81.9,79.7c-1.2,4.6-4.2,6.6-6.7,8C70.6,90.4,61,92,51.2,92H51c-10,0-20-1.6-24.5-4.2  c-2.5-1.4-5.6-3.6-6.8-8.1c-0.9-3.4,0.2-6.7,3.6-10.9C26.3,64.9,34.3,55,36,53h1.9c-1.6,2.2-4.7,6.4-7.5,10.1c0,0,0,0,0,0  c0,0,0,0,0,0.1c-1,1.3-2,2.5-2.8,3.6c-4.5,5.6-5.1,12.6-1.3,16.6c4.2,4.5,15,6.5,23.8,6.7v0c0.2,0,0.4,0,0.5,0c0.2,0,0.3,0,0.5,0v0  c8.9-0.1,19.9-1.9,24-6.7c3.9-4.5,3.6-10.7-1.2-16.5c-0.7-0.8-1.4-1.8-2.2-2.7c0,0,0,0,0-0.1c0,0,0,0,0,0c-3-3.9-6.5-8.5-8.2-10.9  h2.1c1.7,2,9.7,11.9,12.8,15.8C81.7,73,82.8,76.4,81.9,79.7z"/><text x="0" y="115" fill="#000000" font-size="5px" font-weight="bold" font-family="'Helvetica Neue', Helvetica, Arial-Unicode, Arial, Sans-serif">Created by  Laymik</text><text x="0" y="120" fill="#000000" font-size="5px" font-weight="bold" font-family="'Helvetica Neue', Helvetica, Arial-Unicode, Arial, Sans-serif">from the Noun Project</text></svg>