<svg xmlns="http://www.w3.org/2000/svg" xmlns:xlink="http://www.w3.org/1999/xlink" version="1.1" x="0px" y="0px" viewBox="0 0 100 125" style="enable-background:new 0 0 100 100;" xml:space="preserve"><path d="M49.9,72.7c-5.6,0-10.2-4.6-10.2-10.2s4.6-10.2,10.2-10.2S60,56.9,60,62.5S55.5,72.7,49.9,72.7z M49.9,54.3  c-4.5,0-8.2,3.7-8.2,8.2s3.7,8.2,8.2,8.2S58,67,58,62.5S54.4,54.3,49.9,54.3z"/><path d="M80.5,27H63v-4.1c0-1.5-0.9-2.8-2.3-3.1c0.5-3.7,4.9-4.8,5.6-4.8H67V4H33v11h0.7c0.7,0,5.1,1.1,5.4,5  c-1.2,0.4-2.1,1.7-2.1,3V27H18.5c-1.7,0-2.5,0.8-2.5,2.5v63c0,1.7,1.8,3.5,3.5,3.5h60.1c1.7,0,3.4-1.8,3.4-3.5v-63  C83,27.8,82.2,27,80.5,27z M35,13V6h30v7H35z M38.3,15h23.2c-1.4,1-2.6,2-2.8,5H41.1C40.9,17,39.8,16,38.3,15z M39,22.9  c0-0.6,0.6-0.9,1.1-0.9h20.1c0.6,0,0.8,0.4,0.8,0.9V27H39V22.9z M79.6,94H19.5c-0.6,0-1.5-0.9-1.5-1.5v-63c0-0.6-0.1-0.5,0.5-0.5H37  h1h23h2h17.5c0.6,0,0.5-0.1,0.5,0.5v63C81,93.1,80.1,94,79.6,94z"/><path d="M75.4,31c0,0-0.1,0-0.1,0c-7.3,0-11.8,0-11.8,0c0,0,0,0,0,0c-0.1,0-8.4,0.9-13.9,0.9c-6,0-12.2-1.1-12.3-1.1  c-0.2,0-0.7,0-0.9,0c0,0-4.5,0.1-11.8,0c-1.9,0-2.9,0.7-3.5,1.3c-0.7,0.7-1.1,1.7-1,2.8c0.1,1.3,0.2,2.9,0.3,4.6  c0.7,10.2,1.7,25.5,1,35.3c-0.3,4.3-0.5,8.6,0,10.7c0.6,2.8,2.2,4.1,4.6,4.1c0.4,0,0.8,0,1.3-0.1c3.3-0.5,14.6-1.9,22.1-2  c7.6,0,19.7,1.4,23.1,2c0.5,0.1,0.9,0.1,1.3,0.1c2.5,0,4-1.4,4.6-4.1c0.5-2.2,0.3-6.4,0-10.7c-0.6-9.8,0.4-25.1,1-35.3  c0.1-1.7,0.2-3.2,0.3-4.6c0.1-1-0.3-2-1-2.7C78.3,31.6,77.2,31,75.4,31z M77.6,39.3c-0.7,10.2-1.7,25.6-1,35.6c0.2,2.6,0.5,8,0,10.2  c-0.4,1.9-1.2,2.9-3.7,2.5c-3.4-0.5-15.3-1.9-23-2c0,0,0,0,0,0c-0.1,0-0.3,0-0.4,0c-0.1,0-0.3,0-0.4,0c0,0,0,0,0,0  c-7.7,0.1-18.7,1.5-22,2c-2.5,0.4-3.2-0.6-3.7-2.5c-0.5-2.2-0.1-7.6,0-10.2c0.6-9.9-0.4-25.4-1-35.6c-0.1-1.7-0.2-3.3-0.3-4.6  c0-0.5,0.1-0.9,0.5-1.3c0.4-0.5,1.2-0.7,2-0.7c7.4,0.1,11.9,0,11.9,0c0.1,0,0.4,0,0.5,0c0.3,0,6.4,1.1,12.6,1.1  c5.6,0,13.8-1.1,13.9-1.1c0,0,4.6,0.1,11.9,0c0.9,0,1.6,0.2,2,0.7c0.3,0.3,0.5,0.8,0.5,1.3C77.8,36,77.7,37.6,77.6,39.3z"/><text x="0" y="115" fill="#000000" font-size="5px" font-weight="bold" font-family="'Helvetica Neue', Helvetica, Arial-Unicode, Arial, Sans-serif">Created by  Laymik</text><text x="0" y="120" fill="#000000" font-size="5px" font-weight="bold" font-family="'Helvetica Neue', Helvetica, Arial-Unicode, Arial, Sans-serif">from the Noun Project</text></svg>