<svg xmlns="http://www.w3.org/2000/svg" xmlns:xlink="http://www.w3.org/1999/xlink" version="1.1" x="0px" y="0px" viewBox="0 0 100 125" style="enable-background:new 0 0 100 100;" xml:space="preserve"><path d="M48.1,86c-5.5,0-13.2-0.4-18.7-2.4c-3.2-1.2-7.6-2.7-6.8-7.9c0.4-2.8,3.3-5.4,6.3-8.2c1.5-1.3,3-2.7,4.2-4.1  c3.1-3.6,6.4-8.9,7.8-11.9c1.2-2.5,2.2-6.5,2.2-8.4c0-0.6,0.4-1,1-1s1,0.4,1,1c0,2.2-1.1,6.4-2.4,9.2c-1.4,3.1-4.9,8.6-8.1,12.3  c-1.3,1.5-2.8,2.9-4.3,4.3c-2.6,2.4-5.3,4.9-5.7,7c-0.5,3.3,1.8,4.4,5.5,5.7c4.1,1.5,10.5,2.3,18,2.3c0.6,0,1,0.4,1,1  S48.6,86,48.1,86z M83.5,77.3c0,3.1-1.4,5.7-4,7.3c-1.9,1.2-4.9,2.8-5.2,3c-0.5,0.3-1.3,0.7-1.6,1c-0.2,0.2-0.4,0.5-0.4,1.7  c-0.1,1.8-0.6,2.9-1.4,3.4c-1.7,1.2-9.7,1.9-20.7,2l0,0c0,0,0.2,0,0,0c-11,0-18.8-0.6-20.7-1.8c-0.8-0.5-1.3-1.7-1.3-3.5  c-0.1-1.2-0.2-1.6-0.4-1.7c-0.3-0.2-1.1-0.7-1.6-1c-0.3-0.2-3.3-1.8-5.2-3c-2.6-1.6-4-4.2-4-7.3c0-4.2,2.7-6.9,4.2-8.3  c0.3-0.3,0.8-0.8,1.5-1.4c1.4-1.3,3.6-3.3,6.2-5.9c3.9-3.9,7.8-9,9.2-12.1c1.5-3.2,2.1-7.4,2.2-8.6c0.3-2.1,1.9-3,3.1-3.2V35h-1.3  c-0.7,0-1.3-0.5-1.3-1.2c-0.1-0.9-0.4-3.9-0.6-5.3c-0.3-1.4-1.2-6.2-2.6-9.5c-1.2-2.8-4.3-7.9-4.9-8.9c-0.3-0.6-0.2-1.3,0.2-1.7  l2.1-1.9c0.4-0.4,1-0.6,1.5-0.7c2-0.2,8-0.7,14-0.8v0c0,0,0.3,0,0.5,0C50.7,5,50,5,51,5v0c5,0.1,11.6,0.6,13.5,0.8  c0.5,0,0.8,0.3,1.2,0.7l2,1.9c0.5,0.4,0.6,1.2,0.2,1.7c-0.6,1-3.7,6-4.9,8.8c-1.4,3.3-2.4,8.1-2.7,9.5c-0.3,1.5-0.6,4.5-0.7,5.3  c-0.1,0.7-0.6,1.2-1.4,1.2H57v2.9c1.2,0.2,3,1,3.3,3.3c0.1,1.2,0.7,5.4,2.2,8.6c1.4,3.1,5.3,8.2,9.2,12.1c2.6,2.6,4.7,4.6,6.1,5.9  c0.6,0.6,1.1,1.1,1.5,1.4C80.8,70.5,83.5,73.1,83.5,77.3z M42.4,27.5l0-6.6c0-0.5,0.1-1.2,0.7-1.9c1.1-1.3,3.4-1.9,6.9-1.9v0  c0,0,0.1,0,0.1,0c0,0,0,0,0,0c3.5,0,5.8,0.6,6.9,1.9c0.7,0.8,0.7,1.6,0.7,1.9l0,6.6c0.3,0,0.6,0,0.8,0.1c0.4-2.1,1.3-6.2,2.7-9.3  c1.1-2.6,3.7-6.9,4.8-8.7l-1.7-1.6c-0.1-0.1-0.1-0.1-0.2-0.1C62.1,7.6,55.4,7,50,7c-5.4,0-12.1,0.6-14.1,0.8c-0.1,0-0.2,0-0.2,0.1  l-1.7,1.6c1.1,1.8,3.7,6.1,4.8,8.7c1.3,3.1,2.2,7.2,2.7,9.3C41.8,27.5,42.1,27.5,42.4,27.5z M55.7,20.7L55.7,20.7  c0-0.1,0-0.2-0.3-0.5C55,19.7,53.7,19,50.1,19c0,0,0,0,0,0c-3.6,0-4.9,0.7-5.4,1.2c-0.3,0.3-0.3,0.5-0.3,0.5l0,0.1l0,0l0,6.5  c1.6-0.1,3.6-0.1,5.8-0.1c2.1,0,4,0.1,5.5,0.1L55.7,20.7z M41.9,30c1.6-0.1,4.7-0.2,8.4-0.2c3.6,0,6.3,0.1,7.8,0.2  c0-0.2,0-0.3,0.1-0.5c-1.4-0.1-4.3-0.3-8-0.3c-3.8,0-6.9,0.2-8.4,0.3C41.9,29.6,41.9,29.8,41.9,30z M47.2,33h2.5h7.7h0.4  c0-0.3,0.1-0.6,0.1-1.1c-1.5-0.1-4.2-0.2-7.6-0.2c-3.6,0-6.6,0.1-8.2,0.2c0,0.4,0.1,0.8,0.1,1.1h0.4H47.2z M49.7,35h-2.5H45v3.2  c1,0.1,2.7,0.3,5.3,0.3c2.5,0,3.7-0.2,4.7-0.3V35H49.7z M81.5,77.3c0-3.1-1.8-5.2-3.6-6.8c-0.3-0.3-0.8-0.8-1.4-1.3  c-1.4-1.3-3.6-3.3-6.2-5.9c-4-4-8.1-9.4-9.6-12.6c-1.6-3.3-2.2-7.5-2.4-9.2c-0.1-1.1-1-1.4-1.4-1.5L56.5,40c-0.1,0-1.8,0.5-6.1,0.5  c-4.1,0-6.6-0.4-6.8-0.5l-0.5-0.1c-0.5,0.1-1.1,0.5-1.3,1.5c-0.2,1.6-0.8,5.8-2.4,9.2c-1.5,3.3-5.6,8.6-9.6,12.6  c-2.6,2.6-4.8,4.6-6.2,5.9c-0.6,0.6-1.1,1-1.4,1.3c-1.7,1.7-3.6,3.7-3.6,6.8c0,2.4,1.1,4.4,3.1,5.6c1.9,1.2,4.8,2.8,5.1,3  c0.1,0.1,1.4,0.7,1.9,1.1c1,0.8,1.1,1.9,1.2,3.2c0.1,1.3,0.4,1.8,0.5,1.9c0.1,0.1,2.5,1.7,19.5,1.6l0,0c13,0,19.1-1.1,19.9-1.6  c0.1-0.1,0.3-0.5,0.4-1.9c0.1-1.2,0.2-2.4,1.1-3.2c0.5-0.4,1.8-1.1,1.9-1.1c0.3-0.2,3.2-1.8,5.1-3C80.4,81.7,81.5,79.7,81.5,77.3z   M49.8,21.3c-0.6,0-1,0.5-1,1s0.5,1,1,1s1-0.5,1-1S50.4,21.3,49.8,21.3z"/><text x="0" y="115" fill="#000000" font-size="5px" font-weight="bold" font-family="'Helvetica Neue', Helvetica, Arial-Unicode, Arial, Sans-serif">Created by  Laymik</text><text x="0" y="120" fill="#000000" font-size="5px" font-weight="bold" font-family="'Helvetica Neue', Helvetica, Arial-Unicode, Arial, Sans-serif">from the Noun Project</text></svg>