<svg xmlns="http://www.w3.org/2000/svg" xmlns:xlink="http://www.w3.org/1999/xlink" version="1.1" x="0px" y="0px" viewBox="0 0 100 125" style="enable-background:new 0 0 100 100;" xml:space="preserve"><path d="M58.9,32H41l-0.2-0.8c-0.4-1.8-4.3-17.2-4.3-19.9c0-3.6,1.9-5.1,3.6-5.8c2-0.8,9.1-1.8,9.9-1.9l0,0c0.8,0.1,7.8,1.1,9.9,1.9  c1.6,0.7,3.6,2.2,3.6,5.8c0,2.6-3.8,18.1-4.3,19.9L58.9,32z M42.5,30h14.8c1.7-6.8,4-16.9,4-18.6c0-2-0.7-3.3-2.3-3.9  c-1.5-0.6-6.9-1.4-9.2-1.7c-2.3,0.3-7.6,1.1-9.1,1.7c-1.6,0.6-2.3,1.9-2.3,3.9C38.5,13.1,40.8,23.2,42.5,30z M59,34c0-0.6-0.4-1-1-1  H42c-0.6,0-1,0.4-1,1s0.4,1,1,1h16C58.6,35,59,34.6,59,34z M59,37c0-0.6-0.4-1-1-1H42c-0.6,0-1,0.4-1,1s0.4,1,1,1h16  C58.6,38,59,37.6,59,37z M33.7,75.2c-3.6,0-6.5-2.9-6.5-6.5s2.9-6.5,6.5-6.5s6.5,2.9,6.5,6.5S37.3,75.2,33.7,75.2z M33.7,64.3  c-2.5,0-4.5,2-4.5,4.5s2,4.5,4.5,4.5s4.5-2,4.5-4.5S36.2,64.3,33.7,64.3z M64,93.8c8-4.1,16.1-14.1,16.1-26.4  c0-16.2-10.2-25.2-20.1-28.3c-0.2-0.1-0.5-0.1-0.7-0.2h-0.3H40.8h-0.3c-0.1,0-0.3,0.1-0.4,0.1c-9.9,3.1-20.2,12.1-20.2,28.4  c0,11.9,8.7,21.9,16.9,26.3c2.1,1.2,6.5,1.8,13.5,1.8C57.1,95.6,62,95,64,93.8 M62.8,92.1c-1.2,0.7-4.8,1.5-12.8,1.5  c-7.6,0-10.8-0.9-12.2-1.5c-7.9-4.2-16-14-16-24.6c0-15.3,9.7-23.7,18.9-26.5h0c-3.5,2.9-9.3,9.3-9,20.6c0.6-0.2,1.3-0.3,2-0.3  c0,0,0,0,0,0C33.5,47.2,43.1,41.6,44.2,41h14.9C68.3,43.8,78,52.2,78,67.5C78,78.9,70.1,88.2,62.8,92.1z M33.7,65c-0.6,0-1,0.5-1,1  c0,0.6,0.5,1,1,1c0.6,0,1-0.5,1-1C34.7,65.4,34.2,65,33.7,65z M43.8,25.7c0.5-0.1,0.9-0.6,0.9-1.1c0-0.1-1.2-8.9-1.7-13.1  c-0.2-1.7,2.3-2,2.4-2l0,0c0.5-0.1,0.9-0.6,0.9-1.1c-0.1-0.5-0.6-0.9-1.1-0.9c-1.6,0.2-4.5,1.3-4.2,4.2c0.5,4.3,1.7,13.1,1.7,13.1  c0.1,0.5,0.5,0.9,1,0.9C43.7,25.8,43.8,25.7,43.8,25.7z"/><text x="0" y="115" fill="#000000" font-size="5px" font-weight="bold" font-family="'Helvetica Neue', Helvetica, Arial-Unicode, Arial, Sans-serif">Created by  Laymik</text><text x="0" y="120" fill="#000000" font-size="5px" font-weight="bold" font-family="'Helvetica Neue', Helvetica, Arial-Unicode, Arial, Sans-serif">from the Noun Project</text></svg>