<svg xmlns="http://www.w3.org/2000/svg" xmlns:xlink="http://www.w3.org/1999/xlink" version="1.1" x="0px" y="0px" viewBox="0 0 100 125" style="enable-background:new 0 0 100 100;" xml:space="preserve"><path d="M32.1,76.9c-0.3,0-0.7-0.2-0.9-0.5c-3.8-6.5-6.1-14.2-6.1-20.1c0-5.6,2-10.4,5.7-14c2.3-2.2,5-3.7,7.1-4  c0.5-0.1,1.1,0.3,1.1,0.8c0.1,0.5-0.3,1.1-0.8,1.1c-1.8,0.3-4.1,1.6-6.1,3.5c-3.3,3.2-5,7.4-5,12.5c0,5.6,2.2,12.9,5.8,19.1  c0.3,0.5,0.1,1.1-0.4,1.4C32.5,76.8,32.3,76.9,32.1,76.9z M82,55.1c0,7-2.2,14.9-5.8,21.2c-3.5,6.1-6.9,10.7-9.4,12.9  c-1.1,1-1.8,1.4-3.8,1.6v1.2c0,1.4-1,2.5-2.4,2.6C58.5,94.8,54.6,95,51,95c-3.3,0-7.4-0.2-9.5-0.3c-1.4-0.1-2.5-1.2-2.5-2.6v-1.4  c-1-0.2-2.6-0.4-3.8-1.5c-2.5-2.3-5.8-6.8-9.3-12.9c-3.6-6.3-5.8-14.2-5.8-21.2c0-5.9,2.1-11,6-14.7c3.2-3,7.2-5.1,12.5-6.2  c1.6-0.4,2.2-1.1,2.4-1.4v-2.9c-1.1-0.3-2-1.2-2-2.4v-0.9c0-1.7,1.4-3.2,3-3.5V22h-3v-9c0-0.1-0.3-4.5,3.8-7.6  c2.9-2.3,5.5-2.3,7.7-2.2c2.2-0.1,4.8-0.1,7.7,2.2c4,3.2,3.8,7.5,3.8,7.7l0,8.9h-3v1h0.2c2,0,3.8,1.6,3.8,3.6v0.9  c0,1.2-0.9,2.1-2,2.4v2.8c0.2,0.3,0.9,1.1,2.5,1.5c1.9,0.4,7.8,1.8,12.5,6.2C79.9,44.1,82,49.2,82,55.1z M43,32h16v-2H43V32z   M56.3,6.4c1.8,2.2,2.7,4.9,2.7,6.7V20h1v-7c0-0.2,0.2-3.6-3-6.1C56.7,6.7,56.5,6.6,56.3,6.4z M51,5.3L51,20h1h5v-6.8  C57,11,54.9,6.1,51,5.3z M49,22h-5v1h13v-1h-5h-2h0H49z M44,13.2V20h5l0-14.7C45.7,6.7,44,11.2,44,13.2z M42,20v-6.8  c0-1.8,0.9-4.5,2.7-6.7C44.5,6.6,44.3,6.8,44,7c-3.2,2.5-3,5.9-3,6l0,7H42z M41,27.5c0,0.3,0.4,0.5,0.8,0.5h18.4  c0.3,0,0.8-0.2,0.8-0.5v-0.9c0-0.9-0.9-1.6-1.8-1.6h-1.1c0,0,0,0-0.1,0s0,0-0.1,0H43.1c0,0,0,0-0.1,0s0,0-0.1,0h-0.2  c-0.9,0-1.8,0.7-1.8,1.6V27.5z M61,91.1c-3,0.3-8.8,0.2-9.9,0.2c0,0-6,0-10.1-0.3v1.1c0,0.3,0.3,0.6,0.6,0.6  c2.1,0.1,6.1,0.3,9.4,0.3c3.5,0,7.5-0.2,9.6-0.3c0.3,0,0.5-0.3,0.5-0.6V91.1z M80,55.1c0-5.4-1.8-9.9-5.3-13.3  c-4.3-4.1-9.7-5.3-11.5-5.7c-2-0.5-3.1-1.5-3.6-2.1H59H43h-0.4c-0.5,0.7-1.5,1.7-3.5,2.1c-4.9,1.1-8.7,3-11.5,5.7  c-3.5,3.4-5.3,7.9-5.3,13.3c0,6.7,2.1,14.2,5.5,20.2c4.6,7.9,7.6,11.2,9,12.5c0.9,0.8,1.9,1,3.6,1.2c3.5,0.3,9.8,0.4,10.8,0.4  c0.4,0,7.2-0.1,10.9-0.4c1.7-0.2,2.7-0.4,3.6-1.2c1.4-1.3,4.4-4.5,9-12.5C77.9,69.4,80,61.8,80,55.1z"/><text x="0" y="115" fill="#000000" font-size="5px" font-weight="bold" font-family="'Helvetica Neue', Helvetica, Arial-Unicode, Arial, Sans-serif">Created by  Laymik</text><text x="0" y="120" fill="#000000" font-size="5px" font-weight="bold" font-family="'Helvetica Neue', Helvetica, Arial-Unicode, Arial, Sans-serif">from the Noun Project</text></svg>