<svg xmlns="http://www.w3.org/2000/svg" xmlns:xlink="http://www.w3.org/1999/xlink" version="1.1" x="0px" y="0px" viewBox="0 0 100 125" style="enable-background:new 0 0 100 100;" xml:space="preserve"><path d="M42.7,43c-0.3,0-0.6-0.1-0.8-0.4c-0.1-0.1-1.9-2.7-2.8-5c-0.9-2.3-1-5.1-1-5.3l0-6.4c0-0.6,0.4-1,1-1s1,0.4,1,1v6.3l0,0  c0,0,0.1,2.6,0.9,4.6c0.8,2,2.6,4.5,2.6,4.5c0.3,0.4,0.2,1.1-0.2,1.4C43.1,42.9,42.9,43,42.7,43z M41,89.9v-9.3  c0-5.7,0.7-11.4,1.4-13.9c0.3-1.1,0.8-2.4,1.3-3.7c0.2-0.5,0-1.1-0.5-1.3c-0.5-0.2-1.1,0-1.3,0.5c-0.6,1.4-1,2.8-1.4,3.9  c-0.8,2.7-1.5,8.5-1.5,14.4v9.3c0,0.6,0.4,1,1,1S41,90.5,41,89.9z M62.8,39.2c-0.9,2.4-2.7,5.1-3.4,6.1l3.3,6.7l-3.1,6.8  c0.2,0.4,0.6,1.1,0.9,1.7c0.6,1.4,1.5,3.7,2.1,5.8C63.4,69,64,74.8,64,80.7v11.3c0,1-0.6,1.8-1.5,1.9c-1,0.1-6.2,0.6-12.9,0.6  c0,0,0,0,0,0c-0.1,0-0.2,0-0.3,0c-0.1,0-0.2,0-0.3,0c0,0,0,0,0,0c-6.4,0-10.4-0.4-12.4-0.6c-1-0.1-1.5-0.9-1.5-1.9V80.7  c0-5.9,0.6-11.7,1.3-14.4c0.6-2.1,1.4-4.5,2-5.8c0.2-0.4,0.4-0.8,0.6-1.1c0,0-0.1-0.1-0.1-0.1L35.6,52l3.3-6.6  c-0.7-0.9-2.6-3.6-3.5-6.1c-1.2-3-1.3-6.9-1.3-7l0-8.1c0-1.1,0.9-2.2,2.1-2.2H44v-1h-2V7.4C42,6.2,43.2,5,44.4,5h9.1  C54.8,5,56,6.2,56,7.4V21h-2v1h8.1c1.1,0,1.9,1.1,1.9,2.2v8C64,32.5,64,36.2,62.8,39.2z M44,19h10V7.4C54,7.3,53.7,7,53.5,7h-9.1  C44.3,7,44,7.3,44,7.4V19z M46,21v1h6v-1H46z M40,56.9v-9.2l-2.2,4.4L40,56.9z M58.8,61.3c-0.2-0.5-0.5-1-0.7-1.3c0,0,0,0,0,0H41  c-0.2,0.4-0.5,0.9-0.7,1.3c-0.6,1.3-1.4,3.5-2,5.5c-0.7,2.5-1.3,8.2-1.3,13.9V92c2,0.2,5.8,0.6,12.3,0.6c6.5,0,11.7-0.5,12.7-0.6  V80.7c0-5.7-0.6-11.4-1.3-13.9C60.1,64.8,59.4,62.6,58.8,61.3z M55.9,57.5c0.1,0,0.1,0.1,0.1,0.2V46.4l-5.6,5.7L55.9,57.5z M49,53.5  L44.5,58h9.1L49,53.5z M53.6,46h-4.5h-0.1h-4.9l4.8,4.7L53.6,46z M42,46.7v10.9l5.5-5.5L42,46.7z M58,47.1v10.4l2.5-5.4L58,47.1z   M62,24H49.1h-13L36,32.1c0,0,0.1,3.6,1.2,6.3c0.9,2.2,2.6,4.6,3.3,5.6h8.6h0.1h8.6c0.7-1,2.3-3.4,3.2-5.6c1.1-2.7,1.1-6.1,1.1-6.2  V24z M47,17V9c0-0.6-0.4-1-1-1s-1,0.4-1,1v8c0,0.6,0.4,1,1,1S47,17.6,47,17z"/><text x="0" y="115" fill="#000000" font-size="5px" font-weight="bold" font-family="'Helvetica Neue', Helvetica, Arial-Unicode, Arial, Sans-serif">Created by  Laymik</text><text x="0" y="120" fill="#000000" font-size="5px" font-weight="bold" font-family="'Helvetica Neue', Helvetica, Arial-Unicode, Arial, Sans-serif">from the Noun Project</text></svg>